<?xml version="1.0" encoding="utf-8"?>
<!-- Generator: Adobe Illustrator 19.2.1, SVG Export Plug-In . SVG Version: 6.00 Build 0)  -->
<svg version="1.1" id="Layer_1" xmlns="http://www.w3.org/2000/svg" xmlns:xlink="http://www.w3.org/1999/xlink" x="0px" y="0px"
	 viewBox="0 0 866.8 443.1" style="enable-background:new 0 0 866.8 443.1;" xml:space="preserve">
<style type="text/css">
	.st0{fill:#F2F2F2;}
	.st1{fill:#FFB6B6;}
	.st2{fill:#2F2E41;}
	.st3{fill:#E6E6E6;}
	.st4{opacity:0.1;enable-background:new    ;}
	.st5{fill:#CCCCCC;}
	.st6{fill:#A0616A;}
	.st7{fill:#3F3D56;}
</style>
<path class="st0" d="M828.3,245l-2.7,21.6l-6.7,53.7H683.5c1.1-12,2.5-29.4,4-48.1c0.2-1.9,0.3-3.7,0.5-5.6
	c3.9-47,8.1-100.2,8.1-100.2l17.8,3.3l34.5,6.4l14.1,2.6l37.7,7C819,189.2,831.9,216.4,828.3,245L828.3,245z"/>
<polygon class="st1" points="725.9,79.4 742.6,108.5 710.6,131.2 696.9,95.4 "/>
<circle class="st1" cx="704.7" cy="65.7" r="41.2"/>
<path class="st2" d="M701.8,74.9c-3.3-5-2-7.6-4.7-9.4c0,0-1.1-0.7-9-1.2l0,0c-1.8-12.7-4-14.3-4-14.3c-2.5-1.8-6.3-1.2-8.7-0.1
	c-5,2.3-4.4,7.3-7.7,8.2c-4.6,1.3-13-6.1-13.9-14.6c-0.7-6.9,3.8-13.6,5.5-13.3c1.8,0.4,5.9-5,8.2-4.9c1.5,0.1,7.9-2.7,9.6-2.5
	c1.9,0.2,8,3.4,8.2,2.7c1.8-5.1,1.3-6.5,2.8-7.9c2.7-2.6,7-0.8,13.9,0.2c14.1,2,16.5-2.7,23.7,0.5c3.6,1.6,6.7,5.9,12.6,14.4
	c8.3,11.9,12.5,17.8,12.5,24.8c0,7.1-3.4,6.6-4.9,17.1c-1.7,11.7,1.9,17-2,20.8c-3,2.9-9.1,3.6-12.3,1.1c-5.5-4.4,1.7-15-4.4-22.8
	c-3.7-4.8-11.2-6.9-14.7-4.5c-3.9,2.7-1.7,10.5-4.5,11.2C705.8,81,702.3,75.8,701.8,74.9L701.8,74.9z"/>
<path class="st0" d="M797.9,237.3c-1.2,19.7-5.7,25.9-7.3,49.1c-0.3,5.1-0.6,11-0.6,18.1c0,1.8,0,3.5,0,5.2c0,3.6-0.1,7-0.5,10.5
	c-0.3,2.8-0.9,5.6-1.8,8.5h-88.8c0,0,0,0,0-0.1c-0.5-2.3-0.8-4.4-1.1-6.5c-0.1-0.7-0.2-1.3-0.2-2c-0.1-0.8-0.2-1.5-0.2-2.2
	c-0.3-2.9-0.5-5.7-1.2-8.3c-0.9-3.6-2.4-7.1-5.6-10.4c-1.3-1.4-2.6-2.4-3.9-3.3c-0.3-0.2-0.5-0.3-0.7-0.5c-3.5-2.4-6.9-4.2-9.8-9.1
	c0-0.1-0.1-0.1-0.1-0.2c-0.5-0.9-1.8-3.2-2.7-6.2c-1-3.2-1.6-7.1-0.5-11.2c2.6-9.6,12.1-10.6,19.9-20.3c0.8-1,1.7-2.2,2.5-3.5
	c3.5-5.7,4.5-10.8,5.6-16.8c0.2-1,0.3-1.9,0.5-2.9c0.1-0.7,0.2-1.4,0.3-2.1c0.6-5.7,0.3-10.6-0.4-15c-2.4-14.4-9.4-23.3-4.4-36.3
	c1.6-4.1,3.8-7.1,6-9.7c4.7-5.5,9.6-9.1,8.7-16.3c-0.9-7.2-6.3-8.2-6.9-14.5c-0.3-3.2,0.7-6.5,2.7-9.8v0c6.2-10.6,21.8-20.3,31.7-20
	c1.8,0.1,3.5,0.5,4.8,1.3c4.9,2.9,2.9,9.2,10.3,18c5.6,6.5,11.9,9.2,14.3,10.4c9.5,4.9,17.2,19.5,22.4,38.1c0,0.1,0.1,0.3,0.1,0.4
	c3.2,11.7,5.5,24.9,6.6,38.4c0.5,5.7,0.8,11.4,0.8,17.1C798.2,229.9,798.1,233.8,797.9,237.3z"/>
<g>
	<polygon class="st0" points="731.3,304.7 729.5,309.8 728.4,312.9 725.7,320.3 722.7,328.8 703,328.8 706.3,320.3 707.8,316.3 
		710.4,309.8 714.6,298.8 	"/>
	<path class="st0" d="M790.8,167.8c0,0.7-0.1,1.4-0.2,2.2c-0.8,7.9-2.6,22.1-5.3,38.4c-1.4,8.5-3.1,17.7-5,26.7
		c-4,19.5-9,38.8-14.7,51.4c-1,2.3-2,4.3-3.1,6.2c-0.8,1.4-1.7,2.8-2.5,4.1c-2.9,4.4-6.1,8.6-9.5,12.6c-0.1,0.2-0.3,0.3-0.4,0.5
		c-0.5,0.6-1.1,1.3-1.7,1.9c-2.7,3.1-5.5,6-8.3,8.6c-3.3,3.2-6.5,6.1-9.3,8.5H699l-0.1-0.1l-4.6-2c0,0,1.3-1.5,3.5-4.4
		c0.5-0.6,0.9-1.2,1.5-2c0.6-0.9,1.3-1.8,2.1-2.9c1.5-2.2,3.3-4.7,5.2-7.6c3.6-5.6,7.8-12.5,12-20.5c0.5-0.9,1-1.9,1.5-2.8
		c0,0,0-0.1,0-0.1c0.8-1.6,1.7-3.3,2.5-5c7-14.5,8.9-26.5,9.5-30.3c0.8-5.5,1.9-13.2,1.6-21.7c-0.2-5.6-1-11.5-2.9-17.3v0
		c-0.4-1.2-0.9-2.5-1.4-3.7c-0.9-2.2-2-4.4-3.3-6.5c-5.6-9.4-10.2-9.8-13.9-20c-1.1-3-3.5-9.9-2.8-17.1v0c0.1-0.9,0.2-1.8,0.4-2.7v0
		c0-0.3,0.1-0.5,0.2-0.8c0.6-2.2,1.5-4.4,2.9-6.5c2.8-4,6.6-6.4,10-7.9l0,0c3.9-1.6,7.3-2,8-2c14.6-1.3,25.9,11,32.1,17.7
		c2.4,2.6,4.6,4.8,6.6,6.5c15.6,13.9,19.8,5,20.9,0.4C790.7,168.8,790.8,168.2,790.8,167.8L790.8,167.8z"/>
	<path class="st0" d="M790.9,167.3c0,0,0,0.2,0,0.5C790.9,167.7,790.9,167.5,790.9,167.3C790.9,167.3,790.9,167.3,790.9,167.3z"/>
</g>
<path class="st3" d="M711.5,378.3h-536c-5,0-9,4-9,9c0,5,4.1,9,9,9h536c5,0,9-4,9-9C720.5,382.4,716.4,378.3,711.5,378.3z"/>
<path class="st3" d="M592.5,425H294.4c-5,0-9,4-9,9s4,9,9,9h298.1c5,0,9-4.1,9-9S597.5,425,592.5,425z"/>
<polygon class="st1" points="235.1,81.3 268.9,67.1 283.3,96.8 247.8,111.3 "/>
<polygon class="st4" points="235.1,81.3 268.9,67.1 283.3,96.8 247.8,111.3 "/>
<path class="st5" d="M239.9,70l33.3,38.4c0,0-23.2,73.2-46.4,79.7s-65.9,38.4-65.9,38.4l-53.6-34.8l26.1-38.4c0,0,63-86.2,79.7-86.2
	S239.9,70,239.9,70L239.9,70z"/>
<path class="st2" d="M194.8,320.3h-77.6l-4.9-6.6l-20-26.8l-4.6-6.2c0,0-17.4-31.9-13.8-60.9s41.3-35.5,41.3-35.5h1.6l46.1,40.5
	l-2.8,37.7l14.6,24.3L194.8,320.3z"/>
<polygon class="st2" points="133.1,320.3 112.4,320.3 112.4,289.5 "/>
<path class="st0" d="M581.6,273.5l-2.6,13.4l-6.4,33.3h-129c1-7.5,2.4-18.2,3.9-29.8c0.1-1.2,0.3-2.3,0.4-3.5
	c3.7-29.2,7.7-62.2,7.7-62.2l17,2.1l32.9,4l13.4,1.6l35.9,4.4C572.7,238.9,585,255.8,581.6,273.5L581.6,273.5z"/>
<path class="st2" d="M764.1,320.3h-69.9c1.1-1.3,1.7-2,1.7-2l21-3.5l43.2-7.1C760,307.7,762,312.8,764.1,320.3L764.1,320.3z"/>
<polygon class="st6" points="467.5,95.8 497.9,138.8 444.8,140.4 439.1,99.9 "/>
<polygon class="st4" points="467.5,95.8 497.9,138.8 444.8,140.4 439.1,99.9 "/>
<path id="uuid-ae755ff6-bb09-410e-86b1-7d1b81a37005-607" class="st6" d="M317.4,184.9c-3.9-11.3-12.9-18.4-20-15.9
	c-7.2,2.5-9.8,13.6-5.9,24.9c1.5,4.5,4.1,8.6,7.5,11.9l17.1,47.5l22.1-8.5L319,198.9C319.6,194.2,319.1,189.4,317.4,184.9
	L317.4,184.9z"/>
<path class="st5" d="M523.3,163l0,43.8l-4.1,16.2l-8.4,33.3l-6.1,30.6l-4.6,22.8l-1.6,8.2c-1.2,0.8-2.4,1.6-3.7,2.4h-106
	c-6-3.6-9.4-6.4-9.4-6.4s1.7-1.6,3.6-4.1c3.2-4.2,7.1-11.2,4.7-17.8c-0.5-1.4-0.6-3.1-0.5-5c1-12.5,14.1-33.6,14.1-33.6l-2.7-31.3
	l-1.2-13.7l8.4-66.9l27.3-15.9l4.7-0.5l46.5-2.5l19.2,1.1l0.9,0.2L523.3,163L523.3,163z"/>
<g>
	<polygon class="st1" points="525.4,320.3 502.2,320.3 501.2,309.8 501.2,309.6 507.8,309.1 524.8,307.9 525.1,314.2 525.4,319.1 	
		"/>
	<path class="st5" d="M531.1,173.6l9.7,57.1l-7.9,56.2l-1.2,8.8l-2.2,15.5l-0.7,4.8l0,0.5l0.2,3.9h-27.5l-1-10.5l-0.1-0.9l-2.1-21.5
		l0-0.4l-4.4-45.6l8.6-33l0.6-2.4v0l3.8-56.5l-2.9-25.7l0-0.2c0.1,0,0.1,0.1,0.2,0.1c0.2,0.1,0.3,0.2,0.4,0.3
		C521.5,134.7,531.6,153.5,531.1,173.6L531.1,173.6z"/>
</g>
<path class="st5" d="M415.7,152.4l-10.6-11c0,0-22.7,10.2-23.8,15.9c-1.1,5.7-41.1,88.9-41.1,88.9l-17.4-46.5l-22.7,15.1
	c0,0,18.2,72.2,35.2,75.6s74-85.4,74-85.4L415.7,152.4L415.7,152.4z"/>
<path class="st3" d="M845.6,286.4H21.2C9.5,286.4,0,295.9,0,307.6s9.5,21.2,21.2,21.2h824.5c11.7,0,21.2-9.5,21.2-21.2
	S857.3,286.4,845.6,286.4z"/>
<path class="st7" d="M518.5,221.9l-1.6,74.8c-0.2,7.2-6.1,13-13.3,13H366c-7.1,0-12.9-5.5-13.3-12.6l-4.1-74.8
	c-0.4-7.6,5.7-14,13.3-14h143.3C512.7,208.3,518.7,214.5,518.5,221.9L518.5,221.9z"/>
<circle class="st1" cx="296.4" cy="66.4" r="32.9"/>
<polygon class="st1" points="241.3,152.6 244.9,191.7 269.6,290.9 248.3,298.4 212.3,190.2 207.4,146.8 "/>
<path class="st7" d="M231.5,221.9l-1.6,74.8c-0.2,7.2-6.1,13-13.3,13H79c-7.1,0-12.9-5.5-13.3-12.6l-4.1-74.8
	c-0.4-7.6,5.7-14,13.3-14h143.3C225.7,208.3,231.7,214.5,231.5,221.9L231.5,221.9z"/>
<ellipse class="st1" cx="273.5" cy="298.8" rx="26" ry="11.5"/>
<path class="st5" d="M190.2,158.5l14.9-79.2c0,0,41.3-5.8,42.7,8s-1,81-1,81L190.2,158.5L190.2,158.5z"/>
<path class="st2" d="M283.1,71.6c0,0,20.4-7.3,29-11.2c8.6-3.9,25.7,23.4,26,9c0.4-14.4-5.5-20.4-5.5-20.4s-1.5-31.5-33.2-27.6
	c0,0,7-15.8-15.9-18.2c-22.9-2.4-58.6,52.9-55.4,61.2s7,15.1-2,24s-26,58.8-13.1,72.2s13.8,19.3,4.9,27.6s-29.8,26.5-7.1,29.7
	s-2.1,0.8,14.8-14s41.4-14.2,32.3-38c-9.2-23.8,6.8-57.9,4.8-63s4.5-38,4.5-38S282,62.5,283.1,71.6L283.1,71.6z"/>
<g>
	<circle class="st6" cx="451.2" cy="75.5" r="35.8"/>
	<path class="st2" d="M454.1,27.3c-1,0.6-2.4-0.3-2.8-1.5c-0.3-1.2,0.1-2.4,0.4-3.5l1.9-5.7c1.4-4.1,2.8-8.3,5.8-11.4
		c4.5-4.7,11.6-5.9,18-5c8.2,1.1,16.4,5.6,20.2,12.9c3.8,7.4,2.2,17.7-4.7,22.3c9.9,11.3,13.3,23.9,12.8,38.9s-16.9,28.8-27.5,39.3
		c-2.4-1.4-4.5-8.2-3.2-10.7c1.3-2.5-0.6-5.3,1.1-7.6c1.6-2.3,3,1.3,1.3-0.9c-1-1.4,3-4.7,1.5-5.5c-7.4-4.1-9.9-13.4-14.6-20.5
		c-5.6-8.6-15.3-14.4-25.5-15.3c-5.6-0.5-11.6,0.4-16.2,3.7c-4.6,3.3-7.6,9.1-6.5,14.6c-2.8-2.8-4.1-6.9-3.6-10.8
		c0.5-3.9,2.9-7.5,6.3-9.5c-2.1-6.8-0.3-14.7,4.5-20s24.3-4.4,31.3-3C454.6,28.2,454.1,27.3,454.1,27.3z"/>
	<path class="st2" d="M455.1,53.5c9.3,1,16,9,21.6,16.5c3.3,4.3,6.7,9,6.6,14.4c-0.1,5.4-3.7,10.1-5.5,15.3
		c-2.8,8.4-0.1,18.5,6.7,24.2c-6.7,1.3-13.9-3.7-15.1-10.4c-1.3-7.8,4.6-15.3,3.9-23.2c-0.6-7-6.1-12.3-10.8-17.5
		c-4.7-5.2-9-12.1-6.9-18.7L455.1,53.5L455.1,53.5z"/>
</g>
<g>
	<path id="uuid-aec20554-f6ec-4c5b-9d97-717cd04239bf-608" class="st5" d="M593.9,291c-9.2,5.2-14,14.2-10.6,20.1s13.5,6.4,22.7,1.1
		c3.7-2,6.9-4.9,9.2-8.5l38.7-22.7l-11-17.9l-37,24.2C601.7,287.6,597.6,288.8,593.9,291L593.9,291z"/>
	<path class="st5" d="M724.9,124.8c-1.2-0.5-11.3-4.3-20.6,0.8c-10.6,5.8-12.3,19.1-12.9,23.8c-1.3,10.8,2.6,13.2,3.4,24.1
		c1.5,20.4,5.6-2.9-0.9,6.4c-2.3,3.2-25.3,53.2-38,63c-24.7,19-40.4,32.4-40.4,32.4l17.9,19.5c0,0,28.3-7.5,53.4-23.8
		c25.7-16.7,38.5-25,48.5-41.3c0.9-1.4,21.3-36.2,10.3-74.6C743.2,146.3,738.6,130.2,724.9,124.8L724.9,124.8z"/>
</g>
<path class="st7" d="M817.5,221.9l-1.6,74.8c-0.2,7.2-6.1,13-13.3,13H665c-7.1,0-12.9-5.5-13.3-12.6l-4.1-74.8
	c-0.4-7.6,5.7-14,13.3-14h143.3C811.7,208.3,817.7,214.5,817.5,221.9L817.5,221.9z"/>
</svg>
